<?xml version="1.0" encoding="utf-8"?>
<!-- Generator: Adobe Illustrator 26.0.3, SVG Export Plug-In . SVG Version: 6.00 Build 0)  -->
<svg version="1.0" id="katman_1" xmlns="http://www.w3.org/2000/svg" xmlns:xlink="http://www.w3.org/1999/xlink" x="0px" y="0px"
	 viewBox="0 0 800 600" style="enable-background:new 0 0 800 600;" xml:space="preserve">
<style type="text/css">
	.st0{fill:#2D2D2B;}
	.st1{fill:#2E2E2B;}
</style>
<path class="st0" d="M232.2,264.5c0,27.2-16.4,42.2-46.2,42.2h-67.1c0-3.8,0.1-7.5,0.1-11.3h66.9c23.5,0,35-10.1,35-30.9
	c0-15.8-4-31.9-33.7-31.9h-70.2c-0.3-3.8-0.5-7.5-0.9-11.3h71C217,221.3,232.1,235.9,232.2,264.5 M170.5,320.2h-52.2
	c-0.1,3.8-0.4,7.5-0.6,11.3H171C170.8,327.7,170.6,323.9,170.5,320.2 M207,264.2c0-8.8-5.2-18.1-19.8-18.1h-69.3
	c0.2,3.8,0.4,7.5,0.6,11.3h68.9c6,0,8.5,2.1,8.5,6.9c0,3-1,6.5-8.5,6.5h-68.5c0,3.8,0.1,7.5,0.1,11.3h68.3
	C201.9,282,207.1,272.4,207,264.2 M116.9,344.8c-0.3,3.8-0.5,7.5-0.8,11.3h56.6c-0.3-3.8-0.5-7.5-0.8-11.3H116.9z"/>
<g>
	<g>
		<path class="st1" d="M467.5,277.3c1.3,0,2.5,0.1,3.8,0.4v16.5c-2.6-0.5-5.2-0.7-7.8-0.7c-11.7,0-17.6,6.1-17.6,20.2v39.4h-19.1
			c1.5-24.8,1.5-49.6,0-74.4h18.2l-0.3,15.1h0.4C449,284,456,277.3,467.5,277.3z M418,301.9c0,9.5-1.3,33.2,0,51.2h-18.2l-0.5-11.1
			h-0.7c-6.2,8.8-11.4,12.7-22.7,12.7c-14.5,0-20.7-7.5-20.7-20.8c0-13.1,6.5-22.2,30.5-22.2h13v-13.2c0-6.5-1.2-14.7-11.4-14.7
			c-10.2,0-10.9,8.7-10.9,15.3v3.9h-18.3V301c0-7,2-23.8,30.1-23.8C414.2,277.2,418,288.4,418,301.9z M398.7,318.6h-9.4
			c-12.5,0-14.7,5.7-14.7,13.7c0,8.4,2.7,12.7,10.2,12.7c8.7,0,13.8-9.1,13.8-21.1V318.6z M352,282.6v1.1c0,12.5-4.1,31.8-34.2,31.8
			h-18.6l1,37.7h-21.3c1.3-35.9,1.5-70.1,0-102.3h39.9C349.6,251,352,270.3,352,282.6z M331.1,282.5c0-13.5-2-23.8-16.7-23.8h-15.3
			v49h15.2c13.3,0,16.8-7.9,16.8-24.1V282.5z M704.5,243.2h-19.1c1.4,36.5,1.4,73.1,0,110h19.1C703.1,316.7,703.1,280,704.5,243.2z
			 M675.6,311.3v5h-47.9v1.3c0,20.5,3.1,29.9,16.1,29.9c10.1,0,13.8-5.3,14.2-19.9h16.9v0.8c0,14.9-7.9,26.6-32.3,26.6
			c-30.5,0-35.5-17.8-35.5-38v-1.7c0-19.1,6.2-38.3,35.3-38.3C672.1,277,675.6,297,675.6,311.3z M655.1,307.5
			c0-10.8-0.9-23.9-13-23.9c-11.4,0-14.2,10.4-14.2,25.6h27.3V307.5z M538.7,301.9c0,9.5-1.3,33.2,0,51.2h-18.2l-0.5-11.1h-0.7
			c-6.2,8.8-11.4,12.7-22.7,12.7c-14.5,0-20.7-7.5-20.7-20.8c0-13.1,6.5-22.2,30.5-22.2h13v-13.2c0-6.5-1.2-14.7-11.4-14.7
			c-10.1,0-10.9,8.7-10.9,15.3v3.9h-18.3V301c0-7,2-23.8,30.1-23.8C535,277.2,538.7,288.4,538.7,301.9z M519.5,318.6h-9.4
			c-12.5,0-14.7,5.7-14.7,13.7c0,8.4,2.7,12.7,10.2,12.7c8.7,0,13.8-9.1,13.8-21.1V318.6z M549.4,243.2c1.4,36.5,1.4,73.1,0,110
			h19.1c-1.4-36.5-1.4-73.2,0-110H549.4z M578.5,243.2c1.4,36.5,1.4,73.1,0,110h19.1c-1.4-36.5-1.4-73.2,0-110H578.5z"/>
	</g>
</g>
</svg>
